# xmcd
# 
# Track frame offsets:
#     150
#     24089
#     44343
#     60997
# 
# Disc length: 1132
# 
# Revision: 0
# Processed by: cddbd v1.5.2PL0 Copyright (c) Steve Scherf et al.
# Submitted via: BonkEnc v1.0.8
# 
DISCID=23046a04
DTITLE=伊藤由奈 - trust you
DYEAR=0
DGENRE=
TTITLE0=trust you
TTITLE1=Brand New World
TTITLE2=恋はgroovy×2 (DJ-PASSION MORE PASSIN REMIX)
TTITLE3=trust you(inst)
EXTD=
EXTT0=
EXTT1=
EXTT2=
EXTT3=
PLAYORDER=
